<svg width="20" height="20" viewBox="0 0 20 20" fill="none" xmlns="http://www.w3.org/2000/svg">
<rect width="20" height="20" rx="4" fill="url(#paint0_radial_572_598)"/>
<path d="M2.5 10C2.5 8.01088 3.29018 6.10322 4.6967 4.6967C6.10322 3.29018 8.01088 2.5 10 2.5C12.0967 2.50789 14.1092 3.32602 15.6167 4.78333L17.5 6.66667" stroke="#E58600" stroke-width="1.66667" stroke-linecap="round" stroke-linejoin="round"/>
<path d="M17.5007 2.5V6.66667H13.334" stroke="#E58600" stroke-width="1.66667" stroke-linecap="round" stroke-linejoin="round"/>
<path d="M17.5 10C17.5 11.9891 16.7098 13.8968 15.3033 15.3033C13.8968 16.7098 11.9891 17.5 10 17.5C7.90329 17.4921 5.89081 16.674 4.38333 15.2167L2.5 13.3333" stroke="#E58600" stroke-width="1.66667" stroke-linecap="round" stroke-linejoin="round"/>
<path d="M6.66667 13.333H2.5V17.4997" stroke="#E58600" stroke-width="1.66667" stroke-linecap="round" stroke-linejoin="round"/>
<defs>
<radialGradient id="paint0_radial_572_598" cx="0" cy="0" r="1" gradientUnits="userSpaceOnUse" gradientTransform="translate(10 10) rotate(-90) scale(15.0588 32.2831)">
<stop stop-color="#FFD16E" stop-opacity="0"/>
<stop offset="1" stop-color="#FFD16E"/>
</radialGradient>
</defs>
</svg>
